<?xml version="1.0" encoding="UTF-8"?>
<!DOCTYPE svg PUBLIC "-//W3C//DTD SVG 1.1//EN" "http://www.w3.org/Graphics/SVG/1.1/DTD/svg11.dtd">
<!-- Creator: CorelDRAW -->
<svg xmlns="http://www.w3.org/2000/svg" xml:space="preserve" width="43.6562mm" height="10.8478mm" style="shape-rendering:geometricPrecision; text-rendering:geometricPrecision; image-rendering:optimizeQuality; fill-rule:evenodd; clip-rule:evenodd"
viewBox="0 0 43.6562 10.8478"
 xmlns:xlink="http://www.w3.org/1999/xlink">
 <defs>
  <style type="text/css">
   <![CDATA[
    .fil2 {fill:#0093DD}
    .fil1 {fill:white}
    .fil0 {fill:white;fill-rule:nonzero}
   ]]>
  </style>
 </defs>
 <g id="Layer_x0020_1">
  <metadata id="CorelCorpID_0Corel-Layer"/>
  <g id="_160473648">
   <path id="_162184488" class="fil0" d="M6.5782 7.1964l-0.8595 0 0 -0.5141c-0.1429,0.2002 -0.3116,0.3487 -0.5062,0.4466 -0.1946,0.0979 -0.3904,0.1462 -0.5884,0.1462 -0.4027,0 -0.747,-0.1619 -1.0338,-0.4859 -0.2858,-0.324 -0.4298,-0.7763 -0.4298,-1.3556 0,-0.594 0.1395,-1.0451 0.4185,-1.3534 0.279,-0.3082 0.6323,-0.4634 1.0586,-0.4634 0.3904,0 0.729,0.1631 1.0147,0.4882l0 -1.7403 0.9259 0 0 4.8317zm-2.4716 -1.8258c0,0.3735 0.0518,0.6435 0.1553,0.8111 0.1485,0.2407 0.3577,0.3622 0.6255,0.3622 0.2137,0 0.3948,-0.0911 0.5444,-0.2722 0.1485,-0.1811 0.2239,-0.4523 0.2239,-0.8122 0,-0.4017 -0.0731,-0.6919 -0.2171,-0.8685 -0.1451,-0.1766 -0.3307,-0.2655 -0.558,-0.2655 -0.2194,0 -0.4027,0.0877 -0.5512,0.2621 -0.1485,0.1744 -0.2228,0.4354 -0.2228,0.783z"/>
   <path id="_1621844881" class="fil0" d="M10.6753 7.1964l-0.9258 0 0 -1.7864c0,-0.378 -0.0203,-0.6222 -0.0597,-0.7335 -0.0393,-0.1103 -0.1046,-0.1969 -0.1934,-0.2588 -0.0889,-0.0607 -0.1958,-0.0922 -0.3207,-0.0922 -0.1608,0 -0.3048,0.0439 -0.432,0.1316 -0.1271,0.0889 -0.2148,0.2048 -0.2621,0.3499 -0.0472,0.1451 -0.0708,0.4128 -0.0708,0.8043l0 1.5851 -0.9259 0 0 -3.4998 0.8595 0 0 0.5141c0.306,-0.3959 0.6907,-0.5939 1.1542,-0.5939 0.2036,0 0.3915,0.0371 0.5602,0.1102 0.1688,0.0743 0.297,0.1676 0.3836,0.2824 0.0867,0.1147 0.1474,0.2441 0.1812,0.3892 0.0348,0.1451 0.0517,0.3521 0.0517,0.6221l0 2.1757z"/>
   <path id="_162184656" class="fil1" d="M5.6487 0.1322c2.1077,0 3.9276,1.233 4.7785,3.0169l-0.092 0 0.0616 0.153c-0.0507,-0.0282 -0.1029,-0.054 -0.1562,-0.0774 -0.2464,-0.1068 -0.5097,-0.1555 -0.7761,-0.1555 -0.09,0 -0.1779,0.0055 -0.2633,0.0165 -0.7608,-1.1534 -2.0678,-1.9148 -3.5525,-1.9148 -2.3485,0 -4.253,1.9046 -4.253,4.253 0,2.3484 1.9045,4.253 4.253,4.253 1.5007,0 2.8199,-0.7781 3.577,-1.9523l1.1891 0c-0.8561,1.7697 -2.6687,2.991 -4.7661,2.991 -2.922,0 -5.2917,-2.3697 -5.2917,-5.2917 0,-2.922 2.3697,-5.2917 5.2917,-5.2917z"/>
   <path id="_162184704" class="fil0" d="M15.3055 8.0177l-2.1208 -2.3806c-0.0384,-0.0428 -0.0658,-0.0812 -0.0833,-0.1152l-0.0132 0 0 2.4958 -0.3432 0 0 -4.9762 0.3432 0 0 2.3455 0.0132 0c0.0285,-0.0471 0.0581,-0.0877 0.0899,-0.1195l2.0111 -2.226 0.4496 0 -2.1844 2.4124 2.3193 2.5638 -0.4814 0z"/>
   <path id="_1621847041" class="fil0" d="M16.5742 3.5678c-0.0702,0 -0.1316,-0.0252 -0.1842,-0.0745 -0.0526,-0.0505 -0.0789,-0.1152 -0.0789,-0.1952 0,-0.0746 0.0263,-0.136 0.08,-0.1842 0.0537,-0.0483 0.1151,-0.0724 0.1831,-0.0724 0.0713,0 0.1338,0.023 0.1886,0.0691 0.0538,0.046 0.0812,0.1085 0.0812,0.1875 0,0.0756 -0.0263,0.1392 -0.0801,0.1919 -0.0537,0.0515 -0.1162,0.0778 -0.1897,0.0778zm-0.1568 4.4499l0 -3.5529 0.318 0 0 3.5529 -0.318 0z"/>
   <path id="_16218470412" class="fil0" d="M20.2916 8.0177l0 -2.0692c0,-0.8521 -0.3082,-1.2786 -0.9223,-1.2786 -0.3432,0 -0.6239,0.1261 -0.8454,0.3761 -0.2204,0.2511 -0.3301,0.5614 -0.3301,0.9321l0 2.0396 -0.318 0 0 -3.5529 0.318 0 0 0.6459 0.0154 0c0.2599,-0.4891 0.6645,-0.7325 1.215,-0.7325 0.3827,0 0.6766,0.1272 0.8794,0.3838 0.204,0.2555 0.306,0.6207 0.306,1.0933l0 2.1624 -0.318 0z"/>
   <path id="_162184704123" class="fil0" d="M24.0956 8.0177l0 -2.1295c0,-0.4222 -0.0768,-0.7303 -0.2303,-0.9255 -0.1524,-0.1952 -0.3915,-0.2928 -0.715,-0.2928 -0.3059,0 -0.5746,0.1195 -0.806,0.3564 -0.2313,0.2379 -0.3465,0.58 -0.3465,1.0253l0 1.9661 -0.318 0 0 -5.2591 0.318 0 0 2.3455 0.0154 0c0.2785,-0.4847 0.6853,-0.7259 1.2215,-0.7259 0.3828,0 0.6755,0.1228 0.8762,0.3706 0.2018,0.2479 0.3027,0.602 0.3027,1.0648l0 2.2041 -0.318 0z"/>
   <polygon id="_162184152" class="fil0" points="27.2324,3.3595 27.2324,8.0177 26.8924,8.0177 26.8924,3.3595 25.4559,3.3595 25.4559,3.0415 28.6689,3.0415 28.6689,3.3595 "/>
   <path id="_1621841521" class="fil0" d="M31.8621 8.0177l0 -2.1295c0,-0.4222 -0.0768,-0.7303 -0.2303,-0.9255 -0.1524,-0.1952 -0.3915,-0.2928 -0.715,-0.2928 -0.3059,0 -0.5746,0.1195 -0.806,0.3564 -0.2313,0.2379 -0.3465,0.58 -0.3465,1.0253l0 1.9661 -0.318 0 0 -5.2591 0.318 0 0 2.3455 0.0154 0c0.2785,-0.4847 0.6853,-0.7259 1.2215,-0.7259 0.3828,0 0.6755,0.1228 0.8762,0.3706 0.2018,0.2479 0.3027,0.602 0.3027,1.0648l0 2.2041 -0.318 0z"/>
   <path id="_16218415212" class="fil0" d="M35.3733 8.0177l0 -0.7095 -0.0132 0c-0.1129,0.2413 -0.2785,0.4354 -0.4945,0.579 -0.2161,0.1448 -0.4562,0.2171 -0.7194,0.2171 -0.3388,0 -0.6064,-0.0943 -0.8027,-0.284 -0.1974,-0.1897 -0.296,-0.4287 -0.296,-0.7182 0,-0.6207 0.4112,-0.9957 1.2336,-1.124l1.0922 -0.1645c0,-0.7621 -0.2873,-1.1437 -0.8608,-1.1437 -0.3904,0 -0.7698,0.1579 -1.1405,0.4726l0 -0.386c0.1305,-0.1042 0.3093,-0.1941 0.5352,-0.2676 0.2259,-0.0745 0.4386,-0.1107 0.6371,-0.1107 0.3662,0 0.6491,0.1129 0.8487,0.3399 0.1985,0.227 0.2983,0.5571 0.2983,0.9902l0 2.3094 -0.318 0zm-0.9771 -1.7699c-0.3717,0.0538 -0.6338,0.1393 -0.7851,0.2588 -0.1513,0.1185 -0.2259,0.3126 -0.2259,0.5823 0,0.2105 0.0702,0.3827 0.2105,0.5187 0.1393,0.136 0.3356,0.2039 0.5856,0.2039 0.341,0 0.625,-0.1261 0.852,-0.3783 0.227,-0.2533 0.34,-0.5801 0.34,-0.9803l0 -0.3465 -0.9771 0.1414zm-0.1403 -2.3521l-0.3115 0 0.8126 -1.1371 0.3597 0 -0.8608 1.1371z"/>
   <path id="_162184152123" class="fil0" d="M39.1773 8.0177l0 -2.0692c0,-0.8521 -0.3082,-1.2786 -0.9223,-1.2786 -0.3432,0 -0.6239,0.1261 -0.8454,0.3761 -0.2204,0.2511 -0.3301,0.5614 -0.3301,0.9321l0 2.0396 -0.318 0 0 -3.5529 0.318 0 0 0.6459 0.0154 0c0.2599,-0.4891 0.6645,-0.7325 1.215,-0.7325 0.3827,0 0.6766,0.1272 0.8794,0.3838 0.204,0.2555 0.306,0.6207 0.306,1.0933l0 2.1624 -0.318 0z"/>
   <path id="_1621841521234" class="fil0" d="M42.9813 8.0177l0 -2.1295c0,-0.4222 -0.0768,-0.7303 -0.2303,-0.9255 -0.1524,-0.1952 -0.3915,-0.2928 -0.715,-0.2928 -0.3059,0 -0.5746,0.1195 -0.806,0.3564 -0.2313,0.2379 -0.3465,0.58 -0.3465,1.0253l0 1.9661 -0.318 0 0 -5.2591 0.318 0 0 2.3455 0.0154 0c0.2785,-0.4847 0.6853,-0.7259 1.2215,-0.7259 0.3828,0 0.6755,0.1228 0.8762,0.3706 0.2018,0.2479 0.3027,0.602 0.3027,1.0648l0 2.2041 -0.318 0z"/>
   <path id="_162184032" class="fil2" d="M2.9861 0.8397l3.2888 3.3322 -0.016 0.0158 -0.3734 0.0148 -1.2817 0.0516 -0.0683 1.2807 -0.0201 0.3734 -0.0152 0.0151 -3.3029 -3.3461c0.4493,-0.7116 1.0633,-1.3086 1.7888,-1.7375z"/>
  </g>
 </g>
</svg>
